<?xml version="1.0" encoding="UTF-8" standalone="no"?>
<!-- Created with Inkscape (http://www.inkscape.org/) -->

<svg
   xmlns:dc="http://purl.org/dc/elements/1.1/"
   xmlns:cc="http://creativecommons.org/ns#"
   xmlns:rdf="http://www.w3.org/1999/02/22-rdf-syntax-ns#"
   xmlns:svg="http://www.w3.org/2000/svg"
   xmlns="http://www.w3.org/2000/svg"
   xmlns:sodipodi="http://sodipodi.sourceforge.net/DTD/sodipodi-0.dtd"
   xmlns:inkscape="http://www.inkscape.org/namespaces/inkscape"
   width="1024"
   height="512"
   viewBox="0 0 270.93332 135.46667"
   version="1.1"
   id="svg880"
   inkscape:export-filename="/home/lcp/bitmap.png"
   inkscape:export-xdpi="96"
   inkscape:export-ydpi="96"
   inkscape:version="0.92.2 5c3e80d, 2017-08-06"
   sodipodi:docname="logo-text.svg">
  <defs
     id="defs874" />
  <sodipodi:namedview
     id="base"
     pagecolor="#ffffff"
     bordercolor="#666666"
     borderopacity="1.0"
     inkscape:pageopacity="0.0"
     inkscape:pageshadow="2"
     inkscape:zoom="0.5"
     inkscape:cx="297.3444"
     inkscape:cy="416.56376"
     inkscape:document-units="mm"
     inkscape:current-layer="layer1"
     showgrid="false"
     inkscape:pagecheckerboard="true"
     units="px"
     inkscape:window-width="1366"
     inkscape:window-height="715"
     inkscape:window-x="0"
     inkscape:window-y="25"
     inkscape:window-maximized="1" />
  <metadata
     id="metadata877">
    <rdf:RDF>
      <cc:Work
         rdf:about="">
        <dc:format>image/svg+xml</dc:format>
        <dc:type
           rdf:resource="http://purl.org/dc/dcmitype/StillImage" />
        <dc:title></dc:title>
      </cc:Work>
    </rdf:RDF>
  </metadata>
  <g
     inkscape:label="Layer 1"
     inkscape:groupmode="layer"
     id="layer1"
     transform="translate(0,-161.53332)">
    <path
       style="opacity:1;fill:#3b1156;fill-opacity:1;fill-rule:nonzero;stroke:#355611;stroke-width:1.20901835;stroke-miterlimit:4;stroke-dasharray:none;stroke-opacity:1"
       d="M 0.60546875,0.60351562 V 511.39453 H 1023.3945 V 0.60351562 Z M 561.44336,15.611328 H 939.03711 V 239.05664 H 561.44336 Z m 215.27344,15.75 c -3.59396,0.03141 -3.59243,0.03272 -3.61133,4.226563 -0.0865,21.730919 0.65704,70.527989 0.0176,70.990229 -0.63326,0.45789 -20.99701,0.0215 -28.64258,-0.0723 -3.09343,-0.0379 -3.06704,2.6572 -3.08594,3.30664 -0.0187,0.7265 0.0801,3.3297 2.45508,3.31836 8.29765,-0.0416 28.32876,-0.84368 29.20508,0.0625 1.06095,1.0972 -0.0472,69.40023 0.0586,105.20898 0.0107,3.60439 0.01,3.60352 3.55274,3.60352 3.55468,0 3.55318,7.2e-4 3.60156,-3.67578 0.45604,-34.74875 -1.04433,-103.91638 -0.0469,-105.07813 1.05751,-1.23167 16.61098,-0.084 28.73242,-0.084 3.40793,0 3.3987,1e-5 3.40626,-3.35742 0.008,-3.26465 0.0303,-3.26436 -2.32813,-3.22657 -14.23438,0.22152 -29.33225,0.31164 -29.81055,-0.21289 -0.5376,-0.58956 0,-56.415412 0,-71.107418 0,-3.87103 -0.002,-3.93258 -3.5039,-3.902344 z m -129.52539,0.03125 c -1.8765,0.02268 -1.85034,0.331517 -2.66993,2.810547 -23.26072,70.356885 -44.91597,122.540965 -63.96093,183.919925 -1.20412,3.88059 -1.13832,3.88432 0.88086,3.90039 1.8271,0.0151 1.87116,0.0525 3.17578,-2.82617 1.28836,-2.84278 2.81769,-7.06633 5.33398,-12.96289 2.36701,-5.54684 6.44151,-17.87319 10.72266,-26.66407 2.97879,-6.11663 11.23895,-28.71992 12.8457,-30.14843 0.81396,-0.72367 19.71552,-1.48025 34.60156,-1.1836 14.88605,-0.29669 33.78565,0.45993 34.59961,1.1836 1.60679,1.42855 9.86886,24.0318 12.84766,30.14843 4.28111,8.79088 8.35565,21.11723 10.72266,26.66407 2.51625,5.89656 4.04366,10.12008 5.33203,12.96289 1.30461,2.87875 1.34872,2.84061 3.17578,2.82617 2.01921,-0.0189 2.08494,-0.0182 0.88086,-3.90039 -19.04497,-61.379 -40.70022,-113.56304 -63.96094,-183.919925 -0.93668,-2.833134 -0.76747,-2.832291 -3.59766,-2.808594 -0.35376,-0.0029 -0.6616,-0.008 -0.92968,-0.002 z m 78.73242,0 c -3.79828,0 -3.70018,5.62e-4 -3.69727,6.90625 0.0412,84.681862 0.0739,65.703662 -0.13281,167.521482 -0.0231,11.35642 8.23396,16.30592 17.36719,16.16797 11.03592,0 13.9564,-8.40723 13.9375,-14.20117 -0.0106,-3.69135 -0.0743,-3.6722 -2.0293,-3.7168 -1.79286,-0.041 -1.79636,-0.0762 -1.74609,3.30469 0.12873,8.64518 -4.88038,8.96846 -9.85938,9.08789 -5.52132,0.13255 -10.32173,-3.9486 -10.16601,-10.60937 L 729.48828,39.158203 c -0.005,-7.764812 -0.20052,-7.765625 -3.56445,-7.765625 z M 648.12109,56.84375 c 2.25245,0.104693 31.77646,81.70574 30.82032,83.33789 -0.62132,1.06065 -17.27785,1.21885 -30.82032,0.76758 -13.54242,0.45124 -30.20087,0.29307 -30.82226,-0.76758 -0.95611,-1.63219 28.56978,-83.233386 30.82226,-83.33789 z m 184.99805,91.14844 c -23.9348,0 -33.44636,17.44056 -33.4707,35.24414 -0.034,23.82879 8.91946,38.194 32.24414,38.80273 21.27734,-0.21316 26.61094,-8.63847 28.50195,-14.59179 1.5216,-4.7904 1.4851,-4.77522 -0.9668,-4.83399 -2.89239,-0.0692 -2.89395,-0.0724 -4.43554,3.89844 -2.68917,6.92678 -11.69458,9.19993 -22.73828,9.15234 -26.00228,-1.48603 -27.15529,-28.9495 -24.33985,-31.84375 2.24829,-2.06831 52.47582,1.97531 55.66211,-1.08789 2.56721,-2.46803 -4.32145,-34.74023 -30.45703,-34.74023 z m 46.25781,0.17773 c -0.24666,-0.01 -0.52769,-0.006 -0.84961,0.002 -2.63765,0.0643 -2.66697,0.0658 -2.66406,6.68945 l 0.0293,63.9082 h -0.002 c 0.001,3.24034 -0.0116,3.22826 2.6836,3.2207 2.52688,0 2.35211,0.007 2.61328,-3.24609 0.89919,-11.20006 1.06509,-16.09738 2.51367,-27.48437 1.11118,-8.73521 15.37232,-32.30347 28.20703,-32.74805 7.24003,-0.25074 7.46622,-0.39355 7.37891,-3.52149 -0.0639,-2.29538 -0.14321,-2.28343 -9.13867,-2.17382 -8.04669,0.0981 -22.25693,14.82546 -27.17383,25.38671 -2.14946,4.61708 -2.10069,4.87468 -1.83008,-9.73437 0.12019,-6.50759 0.10622,-10.87543 0.0586,-13.87891 -0.0884,-5.55822 -0.0996,-6.3509 -1.82617,-6.41992 z m -45.89843,4.89258 c 18.01073,0.29178 24.4303,21.48091 22.44726,23.53516 -1.7068,1.7681 -46.30169,1.77494 -47.90039,-0.12696 -1.21047,-1.44007 2.28598,-23.78343 25.45313,-23.4082 z m -75.69908,123.56414 c 24.39168,0 36.22816,13.56583 36.33399,43.44727 0.17299,48.77012 6.39132,109.12054 -21.45117,135.53906 -18.77507,17.81484 -44.52208,15.87899 -70.54493,15.97461 -3.94774,0.0145 -3.90992,0.0328 -4.00781,-4.07617 -0.1101,-4.62149 -0.0658,-4.69079 3.75977,-4.75391 26.27187,-0.43321 53.44742,1.10247 67.61328,-17.35742 17.63425,-22.97953 16.58163,-81.0028 14.00781,-82.96094 -2.57559,-1.95945 -12.19331,8.46285 -31.02734,8.57813 -20.88798,0.12797 -37.6267,-19.95701 -37.08789,-47.14844 0.6009,-30.32266 12.76569,-47.24219 42.40429,-47.24219 z m 96.82813,0 c 18.63413,0.0416 38.78507,23.70194 39.01562,45.81055 0.22678,21.75137 -19.7506,48.40915 -42.79101,47.73828 -24.71649,-0.71966 -39.91886,-18.95156 -41.77344,-45.57422 -1.69776,-24.37175 20.96837,-48.02941 45.54883,-47.97461 z m -199.80664,0.004 c 34.64285,0 43.77591,41.08644 40.37305,44.22852 -4.22348,3.89975 -70.80305,-1.24844 -73.78321,1.38476 -3.73187,3.68462 -2.20056,38.64917 32.26563,40.54102 14.63849,0.0606 26.57412,-2.83583 30.13867,-11.6543 2.04336,-5.055 2.04499,-5.049 5.87891,-4.96094 3.24997,0.0748 3.30011,0.0556 1.2832,6.1543 -2.50658,7.57912 -9.57609,18.30675 -37.7793,18.57812 -30.91702,-0.77503 -42.78565,-19.06592 -42.74219,-49.40234 0.0323,-22.66583 12.63947,-44.86914 44.36524,-44.86914 z m 0.47656,6.45703 c -30.70824,-0.47766 -35.34081,27.96546 -33.73633,29.79883 2.11907,2.42109 61.2298,2.41504 63.49219,0.16406 2.62851,-2.61528 -5.88251,-29.59136 -29.75586,-29.96289 z m 102.52344,1.92774 c -23.86662,-0.34447 -31.8457,16.02749 -31.8457,36.75586 0,27.07493 8.42143,40.48274 26.75195,40.84179 23.62564,0.46269 30.48851,-21.39684 30.72851,-42.06836 0.25663,-22.08797 0.52819,-35.15172 -25.63476,-35.52929 z m 99.17969,1.28125 c -0.64253,-0.0149 -1.29919,-0.008 -1.96875,0.0195 -21.38461,0.8928 -36.94785,13.17156 -37,38.74218 -0.029,14.2585 12.68173,38.76553 33.17773,34.75 19.20238,-3.7621 32.27702,-15.239 32.53516,-36.58203 0.19153,-15.82614 -6.8259,-36.4683 -26.74414,-36.92968 z"
       transform="matrix(0.26458333,0,0,0.26458333,0,161.53332)"
       id="rect821"
       inkscape:connector-curvature="0"
       sodipodi:nodetypes="ccccccccccccccccccsccscccscccccccsccccsccccccscscccccccscccccsccccccccsscccccccccccccsccccscscscccccsccsscsccccccccscccccsccccccscc" />
    <path
       style="fill:#000000;stroke-width:0.26458332"
       d=""
       id="path1446"
       inkscape:connector-curvature="0" />
    <path
       style="fill:#000000;stroke-width:0.26458332"
       d=""
       id="path1444"
       inkscape:connector-curvature="0" />
    <path
       style="fill:#000000;stroke-width:0.26458332"
       d=""
       id="path1442"
       inkscape:connector-curvature="0" />
    <path
       style="fill:#3b1156;fill-opacity:1;stroke:#3b1156;stroke-width:2.63895416;stroke-linecap:butt;stroke-linejoin:miter;stroke-miterlimit:4;stroke-dasharray:none;stroke-opacity:1"
       d="m 87.607128,176.72852 c -9.454106,0.22409 -23.099208,4.19321 -23.099208,13.25227 0,14.23765 32.550667,22.25103 43.37529,14.76762 4.63614,-3.20509 -0.0474,-16.12384 -5.99266,-23.68142 -2.992563,-3.804 -7.041463,-2.48414 -14.283422,-4.33847 z"
       id="path1639"
       inkscape:connector-curvature="0"
       sodipodi:nodetypes="csssc"
       inkscape:export-xdpi="96"
       inkscape:export-ydpi="96" />
    <path
       id="path1539"
       style="fill:#8025ba;fill-opacity:1;stroke:#3b1156;stroke-width:2.6389451;stroke-linecap:butt;stroke-linejoin:miter;stroke-miterlimit:4;stroke-dasharray:none;stroke-opacity:1"
       d="m 69.675442,204.21119 c 12.249395,9.80114 31.037238,1.54211 40.174588,5.8492 M 74.234447,171.0549 c -1.513712,0.002 -2.881776,0.18862 -4.032256,0.59733 -0.953061,4.12371 -1.154281,4.62417 -1.737088,7.68107 v 0 c -11.281051,1.09397 -22.204849,4.95211 -31.361869,11.19638 -25.86218,17.63565 -33.5219372,52.75285 -13.896697,77.1346 16.653214,20.68942 49.456224,26.74321 71.94933,10.54188 17.909543,-12.89985 23.517113,-37.53852 10.284583,-54.97948 0.36969,-0.0961 0.669,-0.21287 0.88067,-0.35396 15.83384,-10.55579 -3.10397,-43.10914 -3.10397,-43.10914 -3.805603,-4.47285 -19.732262,-8.726 -28.982703,-8.70868 z m 10.97323,10.65928 c 3.382354,-0.11465 6.919297,3.62736 6.919297,7.98346 0,28.04481 -36.3646,-6.98571 -6.919297,-7.98346 z m 17.529473,3.26268 c 0.61158,0.005 0.98795,0.1527 2.30735,0.67833 1.59243,3.22859 3.70329,8.151 4.55129,11.66095 -10.082083,8.23634 -13.167413,-11.92446 -7.59242,-12.30701 0.29974,-0.0205 0.52988,-0.0342 0.73378,-0.0323 z"
       inkscape:connector-curvature="0" />
    <ellipse
       style="opacity:1;fill:#8025ba;fill-opacity:1;fill-rule:evenodd;stroke:#8025ba;stroke-width:2.6389451;stroke-linecap:round;stroke-linejoin:round;stroke-miterlimit:4;stroke-dasharray:none;stroke-opacity:1;paint-order:normal"
       id="path1550"
       cx="83.737114"
       cy="190.45929"
       rx="2.0327303"
       ry="1.8071252"
       inkscape:export-xdpi="96"
       inkscape:export-ydpi="96" />
    <ellipse
       style="opacity:1;fill:#8025ba;fill-opacity:1;fill-rule:evenodd;stroke:#8025ba;stroke-width:2.6389451;stroke-linecap:round;stroke-linejoin:round;stroke-miterlimit:4;stroke-dasharray:none;stroke-opacity:1;paint-order:normal"
       id="path1554"
       cx="104.33836"
       cy="192.30225"
       rx="0.94502592"
       ry="0.88483971"
       inkscape:export-xdpi="96"
       inkscape:export-ydpi="96" />
    <path
       id="path1533-6"
       style="fill:#8025ba;fill-opacity:1;stroke:#3b1156;stroke-width:2.6389451;stroke-linecap:butt;stroke-linejoin:miter;stroke-miterlimit:4;stroke-dasharray:none;stroke-opacity:1"
       d="m 70.284036,240.90335 c -2.494864,-3.76798 4.222669,-4.99114 6.724244,-3.86196 6.77912,3.06001 5.756149,11.85054 1.568996,16.38719 -7.489842,8.11495 -21.100509,6.25365 -28.465993,-0.93942 -10.809145,-10.55611 -7.730979,-27.569 3.586265,-36.63627 2.148238,-1.72118 4.547215,-3.16713 7.021438,-4.45642 10.300562,9.04867 41.744534,14.04795 45.602124,11.47626"
       inkscape:connector-curvature="0"
       sodipodi:nodetypes="csssscc"
       inkscape:export-xdpi="96"
       inkscape:export-ydpi="96" />
    <path
       id="path832"
       style="fill:#8025ba;fill-opacity:1;stroke:#3b1156;stroke-width:2.6389451;stroke-linecap:butt;stroke-linejoin:miter;stroke-miterlimit:4;stroke-dasharray:none;stroke-opacity:1"
       d="m 55.940345,259.19551 c 0.04518,-2.5276 0.354774,-5.43996 0.506657,-9.25052 1.636496,-0.24674 2.677283,0.20473 3.145055,0.0217 3.586483,-0.33539 6.345491,-3.4928 8.391815,-3.76944 -1.593057,-1.44707 -5.526185,0.95707 -6.947317,1.1285 0.393619,-1.64815 1.859327,-3.84203 3.223939,-4.4092 -2.724352,-1.26649 -4.583228,3.63574 -5.412047,3.59629 -0.192902,-0.71499 0.533978,-4.74822 0.908225,-5.05611 -1.936938,0.09 -3.366623,4.86764 -3.300654,5.0461 -1.626923,0.0235 -5.74051,-0.4854 -7.219351,-0.13721 -3.083437,6.0964 -3.38417,7.31657 -5.009358,9.33091 m -0.940973,-35.54877 c 10.679727,-1.48687 10.824707,-2.4163 12.869842,-1.43255 0.414021,1.05043 3.489726,7.2606 3.884622,7.62501 1.588988,1.88961 2.597296,5.40803 2.516284,7.16381 2.135171,-2.37893 -1.108908,-4.11305 0.12249,-6.36181 2.634621,1.4977 4.217423,1.72381 5.562097,3.8135 0.863359,-3.32862 -4.256413,-3.79898 -4.4889,-5.58462 1.382893,-0.45733 5.359541,-0.0617 6.438164,0.82998 -0.626919,-2.59437 -4.909793,-3.1771 -7.06731,-2.26454 -0.230804,-1.30584 -2.538446,-8.51235 -3.051417,-9.65731 -6.050535,-1.69719 -5.337799,0.51936 -10.42344,-1.95317"
       inkscape:connector-curvature="0" />
  </g>
</svg>
