<?xml version="1.0" encoding="UTF-8" standalone="no"?>
<!-- Created with Inkscape (http://www.inkscape.org/) -->

<svg
   xmlns:dc="http://purl.org/dc/elements/1.1/"
   xmlns:cc="http://creativecommons.org/ns#"
   xmlns:rdf="http://www.w3.org/1999/02/22-rdf-syntax-ns#"
   xmlns:svg="http://www.w3.org/2000/svg"
   xmlns="http://www.w3.org/2000/svg"
   xmlns:sodipodi="http://sodipodi.sourceforge.net/DTD/sodipodi-0.dtd"
   xmlns:inkscape="http://www.inkscape.org/namespaces/inkscape"
   width="512"
   height="512"
   viewBox="0 0 135.46666 135.46667"
   version="1.1"
   id="svg880"
   inkscape:export-filename="/home/lcp/bitmap.png"
   inkscape:export-xdpi="96"
   inkscape:export-ydpi="96"
   inkscape:version="0.92.2 5c3e80d, 2017-08-06"
   sodipodi:docname="logo.svg">
  <defs
     id="defs874" />
  <sodipodi:namedview
     id="base"
     pagecolor="#ffffff"
     bordercolor="#666666"
     borderopacity="1.0"
     inkscape:pageopacity="0.0"
     inkscape:pageshadow="2"
     inkscape:zoom="1"
     inkscape:cx="137.31856"
     inkscape:cy="269.82202"
     inkscape:document-units="mm"
     inkscape:current-layer="layer1"
     showgrid="false"
     inkscape:pagecheckerboard="true"
     units="px"
     inkscape:window-width="1366"
     inkscape:window-height="715"
     inkscape:window-x="0"
     inkscape:window-y="25"
     inkscape:window-maximized="1" />
  <metadata
     id="metadata877">
    <rdf:RDF>
      <cc:Work
         rdf:about="">
        <dc:format>image/svg+xml</dc:format>
        <dc:type
           rdf:resource="http://purl.org/dc/dcmitype/StillImage" />
        <dc:title />
      </cc:Work>
    </rdf:RDF>
  </metadata>
  <g
     inkscape:label="Layer 1"
     inkscape:groupmode="layer"
     id="layer1"
     transform="translate(0,-161.53332)">
    <rect
       style="opacity:1;fill:#8025ba;fill-opacity:1;fill-rule:nonzero;stroke:none;stroke-width:0.26458332;stroke-miterlimit:4;stroke-dasharray:none;stroke-opacity:1"
       id="rect879"
       width="135.46666"
       height="135.46666"
       x="0"
       y="161.53333" />
    <path
       style="opacity:1;fill:#3b1156;fill-opacity:1;fill-rule:nonzero;stroke:none;stroke-width:0.22659519;stroke-miterlimit:4;stroke-dasharray:none;stroke-opacity:1"
       d="M 0,161.53332 V 296.99999 H 135.46667 V 161.53332 Z m 85.236966,20.1011 c -29.494584,0.99942 6.931056,36.08858 6.931056,7.99685 0,-4.3634 -3.543042,-8.1117 -6.931056,-7.99685 z M 84.09197,187.524 c 1.865212,2e-4 3.377122,1.39021 3.377014,3.10474 -2.04e-4,1.71434 -1.512022,3.10403 -3.377014,3.10422 -1.865193,7e-5 -3.377326,-1.3897 -3.37753,-3.10422 -1.09e-4,-1.71472 1.512118,-3.10481 3.37753,-3.10474 z m 21.13583,2.60834 c 1.06959,-3e-5 1.93663,0.84012 1.93646,1.8764 -1.3e-4,1.03608 -0.86708,1.87591 -1.93646,1.87588 -1.06937,3e-5 -1.93631,-0.8398 -1.93644,-1.87588 -1.7e-4,-1.03628 0.86686,-1.87643 1.93644,-1.8764 z m -34.711691,12.76421 -1.855183,2.38524 c 13.876106,9.92064 31.349244,2.15747 40.615264,5.76432 l 0.99385,-2.18646 c -8.66695,-3.9503 -28.932611,3.42388 -39.753931,-5.9631 z m -13.350692,14.97398 c -0.7324,-0.61362 -1.783335,-0.82325 -3.047285,-0.80543 m 0,0 -4.438668,0.58648 c -2.116531,0.40403 -4.424508,0.89788 -6.692946,1.08029 l 0.496923,2.68338 c 1.055242,-0.12147 2.359139,-0.34197 3.710367,-0.58181 -2.131444,3.151 -3.291535,6.1519 -3.917418,8.15577 -2.355351,7.54104 -0.825088,14.89698 3.006907,20.61148 -1.110031,2.29812 -2.200693,4.34162 -3.200501,5.20683 l 2.061199,1.78012 c 0.621918,-0.49753 1.778505,-2.64088 2.841268,-4.72595 l 1.255251,-2.48979 c 0.536021,-1.06629 0.967054,-1.9019 1.056999,-1.91989 2.805954,-0.008 6.269824,0.54724 9.323535,0.0937 l -0.234484,1.14603 c -0.888848,-0.0222 -2.753137,-0.31655 -4.131199,0.25156 0.02851,0.55351 -0.06118,3.23525 -0.199806,5.75138 l -0.193593,2.84852 c -0.05654,0.65713 -0.114916,1.22993 -0.17444,1.55236 l 2.489279,0.0487 c 0.06201,-0.4472 0,0 0.06201,-0.4472 0.172588,0.0722 0.466076,0.20715 0.640407,0.27535 2.469154,0.96596 11.839972,1.95488 17.373189,-1.47473 6.598824,-4.0901 11.096231,-11.02205 5.251866,-19.55033 -3.949457,-5.76316 -15.332653,-1.04638 -11.280176,3.69277 l 2.133151,-1.4033 c -1.438968,-2.80306 4.759854,-2.5726 6.302133,-1.49698 4.55809,3.17889 2.83366,9.45373 1.098412,12.26523 -4.091635,6.62935 -15.091779,7.55202 -21.296301,5.02928 0.01243,-1.17282 0.03552,-2.65517 0.144935,-4.99771 1.582097,0.61009 5.986458,-0.35104 10.014056,-3.46761 0.893257,-0.44658 2.537135,-0.0798 3.221207,-0.42186 -1.696252,-1.71757 -3.567729,-3.74054 -7.355512,-2.0907 0.798275,-1.05873 2.561436,-1.7585 3.718648,-2.07984 -2.479036,-1.66763 -4.252917,-2.01839 -6.622547,-0.36286 1.175576,-1.61713 0.879002,-0.81054 2.791056,-2.56278 -5.247537,0.48667 -4.945115,-0.9529 -8.0393,5.26947 -2.327866,0 -4.621325,-0.51628 -6.956937,-0.1175 -0.285478,0.58276 -0.572774,1.18838 -0.860299,1.79772 -2.961648,-4.77161 -3.452816,-10.30401 -1.469548,-17.83492 0.753596,-2.86157 2.843088,-6.161 5.2705,-9.06471 1.545256,-0.26199 2.922197,-0.46007 3.826832,-0.47467 3.616319,7.58989 6.950976,10.25419 5.797447,17.32609 4.00845,-4.74685 4.178596,-2.91241 3.080929,-7.48699 -0.09607,-0.48037 1.847934,0.8669 1.954569,0.99385 0.575928,0.71115 1.884483,2.14553 2.815902,3.6441 1.48941,-4.27443 0.301427,-6.36487 -1.457644,-7.3876 1.991534,-0.7094 4.02196,2.03442 5.035497,2.94842 -0.264981,-3.00947 -1.097627,-8.11846 -8.381452,-7.28822 -0.33742,-1.27657 -1.550403,-6.2554 -3.067471,-9.20915 -0.329099,-0.15668 -0.682638,-0.28279 -1.052859,-0.38666 0.191943,-0.0764 0.377082,-0.1421 0.547653,-0.1848 7.088193,7.05444 37.686862,14.58426 45.951502,11.81592 12.12648,17.38454 6.36794,41.24703 -11.166819,53.87692 C 72.671095,294.51665 39.812901,288.45262 23.131814,267.72857 3.47373,243.30601 11.14644,208.12981 37.051898,190.46464 c 9.172346,-6.25472 20.114488,-10.11915 31.414398,-11.21495 0.583783,-3.06201 0.785615,-3.56343 1.740271,-7.69404 1.152404,-0.4094 2.522298,-0.59637 4.038543,-0.59838 9.265923,-0.0173 25.219263,4.24327 29.03123,8.7236 0,0 1.37699,2.36702 3.07887,6.03245 -1.32161,-0.52651 -2.94662,-0.80559 -3.55922,-0.8106 -0.20425,-0.002 -0.4348,0.0115 -0.73504,0.032 -5.584323,0.38319 -1.4856,20.26637 8.61335,12.01625 0,0 3.55396,18.49037 -2.24393,24.24678 l -2.83143,0.58181 c -2.86811,1.34598 -32.000378,-1.19902 -44.557516,-11.99242 -1.826207,0.73659 -3.469441,1.58395 -4.953712,2.50532 -2.420023,-0.12329 -4.780391,-0.13997 -5.879232,-1.27958 l -1.060105,2.31898 c 0.95587,0.83487 2.212658,1.22366 3.537479,1.41623 l 3.763165,0.22414 c 1.017811,0.028 1.946837,0.076 2.637837,0.28107 1.284052,3.31537 2.372554,6.50669 3.114057,10.00474 0.0397,0.19847 -0.400706,1.05851 -0.596308,0.96071 -2.086093,-2.20291 -3.02962,-5.90601 -4.439188,-8.34832"
       id="rect821"
       inkscape:connector-curvature="0"
       sodipodi:nodetypes="cccccccccsccccccccccccccccccccccccccccsccccccccccccccscccccccccccccccccscccccccccccccccccccccccccssc" />
    <path
       style="fill:#000000;stroke-width:0.26458332"
       d=""
       id="path1446"
       inkscape:connector-curvature="0" />
    <path
       style="fill:#000000;stroke-width:0.26458332"
       d=""
       id="path1444"
       inkscape:connector-curvature="0" />
    <path
       style="fill:#000000;stroke-width:0.26458332"
       d=""
       id="path1442"
       inkscape:connector-curvature="0" />
  </g>
</svg>
