<?xml version="1.0" encoding="UTF-8" standalone="no"?>
<!-- Created with Inkscape (http://www.inkscape.org/) -->

<svg
   xmlns:dc="http://purl.org/dc/elements/1.1/"
   xmlns:cc="http://creativecommons.org/ns#"
   xmlns:rdf="http://www.w3.org/1999/02/22-rdf-syntax-ns#"
   xmlns:svg="http://www.w3.org/2000/svg"
   xmlns="http://www.w3.org/2000/svg"
   xmlns:sodipodi="http://sodipodi.sourceforge.net/DTD/sodipodi-0.dtd"
   xmlns:inkscape="http://www.inkscape.org/namespaces/inkscape"
   width="512"
   height="512"
   viewBox="0 0 135.46666 135.46667"
   version="1.1"
   id="svg880"
   inkscape:export-filename="/home/lcp/bitmap.png"
   inkscape:export-xdpi="96"
   inkscape:export-ydpi="96"
   inkscape:version="0.92.2 5c3e80d, 2017-08-06"
   sodipodi:docname="logo.svg">
  <defs
     id="defs874" />
  <sodipodi:namedview
     id="base"
     pagecolor="#ffffff"
     bordercolor="#666666"
     borderopacity="1.0"
     inkscape:pageopacity="0.0"
     inkscape:pageshadow="2"
     inkscape:zoom="1"
     inkscape:cx="319.12701"
     inkscape:cy="242.35309"
     inkscape:document-units="mm"
     inkscape:current-layer="layer1"
     showgrid="false"
     inkscape:pagecheckerboard="true"
     units="px"
     inkscape:window-width="1280"
     inkscape:window-height="1024"
     inkscape:window-x="1280"
     inkscape:window-y="28"
     inkscape:window-maximized="0" />
  <metadata
     id="metadata877">
    <rdf:RDF>
      <cc:Work
         rdf:about="">
        <dc:format>image/svg+xml</dc:format>
        <dc:type
           rdf:resource="http://purl.org/dc/dcmitype/StillImage" />
        <dc:title></dc:title>
      </cc:Work>
    </rdf:RDF>
  </metadata>
  <g
     inkscape:label="Layer 1"
     inkscape:groupmode="layer"
     id="layer1"
     transform="translate(0,-161.53332)">
    <path
       style="fill:#000000;stroke-width:0.26458332"
       d=""
       id="path1446"
       inkscape:connector-curvature="0" />
    <path
       style="fill:#000000;stroke-width:0.26458332"
       d=""
       id="path1444"
       inkscape:connector-curvature="0" />
    <path
       style="fill:#000000;stroke-width:0.26458332"
       d=""
       id="path1442"
       inkscape:connector-curvature="0" />
    <path
       style="fill:#4b1980;fill-opacity:1;stroke:#4b1980;stroke-width:2.63895416;stroke-linecap:butt;stroke-linejoin:miter;stroke-miterlimit:4;stroke-dasharray:none;stroke-opacity:1"
       d="m 87.607128,176.72852 c -9.454106,0.22409 -23.099208,4.19321 -23.099208,13.25227 0,14.23765 32.550667,22.25103 43.37529,14.76762 4.63614,-3.20509 -0.0474,-16.12384 -5.99266,-23.68142 -2.992563,-3.804 -7.041463,-2.48414 -14.283422,-4.33847 z"
       id="path1639"
       inkscape:connector-curvature="0"
       sodipodi:nodetypes="csssc"
       inkscape:export-xdpi="96"
       inkscape:export-ydpi="96" />
    <path
       id="path1539"
       style="fill:#8c45da;fill-opacity:1;stroke:#4b1980;stroke-width:2.6389451;stroke-linecap:butt;stroke-linejoin:miter;stroke-miterlimit:4;stroke-dasharray:none;stroke-opacity:1"
       d="m 69.675442,204.21119 c 12.249395,9.80114 31.037238,1.54211 40.174588,5.8492 M 74.234447,171.0549 c -1.513712,0.002 -2.881776,0.18862 -4.032256,0.59733 -0.953061,4.12371 -1.154281,4.62417 -1.737088,7.68107 v 0 c -11.281051,1.09397 -22.204849,4.95211 -31.361869,11.19638 -25.86218,17.63565 -33.5219372,52.75285 -13.896697,77.1346 16.653214,20.68942 49.456224,26.74321 71.94933,10.54188 17.909543,-12.89985 23.517113,-37.53852 10.284583,-54.97948 0.36969,-0.0961 0.669,-0.21287 0.88067,-0.35396 15.83384,-10.55579 -3.10397,-43.10914 -3.10397,-43.10914 -3.805603,-4.47285 -19.732262,-8.726 -28.982703,-8.70868 z m 10.97323,10.65928 c 3.382354,-0.11465 6.919297,3.62736 6.919297,7.98346 0,28.04481 -36.3646,-6.98571 -6.919297,-7.98346 z m 17.529473,3.26268 c 0.61158,0.005 0.98795,0.1527 2.30735,0.67833 1.59243,3.22859 3.70329,8.151 4.55129,11.66095 -10.082083,8.23634 -13.167413,-11.92446 -7.59242,-12.30701 0.29974,-0.0205 0.52988,-0.0342 0.73378,-0.0323 z" />
    <ellipse
       style="opacity:1;fill:#8c45da;fill-opacity:1;fill-rule:evenodd;stroke:#8c45da;stroke-width:2.6389451;stroke-linecap:round;stroke-linejoin:round;stroke-miterlimit:4;stroke-dasharray:none;stroke-opacity:1;paint-order:normal"
       id="path1550"
       cx="83.737114"
       cy="190.45929"
       rx="2.0327303"
       ry="1.8071252"
       inkscape:export-xdpi="96"
       inkscape:export-ydpi="96" />
    <ellipse
       style="opacity:1;fill:#8c45da;fill-opacity:1;fill-rule:evenodd;stroke:#8c45da;stroke-width:2.6389451;stroke-linecap:round;stroke-linejoin:round;stroke-miterlimit:4;stroke-dasharray:none;stroke-opacity:1;paint-order:normal"
       id="path1554"
       cx="104.33836"
       cy="192.30225"
       rx="0.94502592"
       ry="0.88483971"
       inkscape:export-xdpi="96"
       inkscape:export-ydpi="96" />
    <path
       id="path1533-6"
       style="fill:#8c45da;fill-opacity:1;stroke:#4b1980;stroke-width:2.6389451;stroke-linecap:butt;stroke-linejoin:miter;stroke-miterlimit:4;stroke-dasharray:none;stroke-opacity:1"
       d="m 70.284036,240.90335 c -2.494864,-3.76798 4.222669,-4.99114 6.724244,-3.86196 6.77912,3.06001 5.756149,11.85054 1.568996,16.38719 -7.489842,8.11495 -21.100509,6.25365 -28.465993,-0.93942 -10.809145,-10.55611 -7.730979,-27.569 3.586265,-36.63627 2.148238,-1.72118 4.547215,-3.16713 7.021438,-4.45642 10.300562,9.04867 41.744534,14.04795 45.602124,11.47626"
       inkscape:connector-curvature="0"
       sodipodi:nodetypes="csssscc"
       inkscape:export-xdpi="96"
       inkscape:export-ydpi="96" />
    <path
       id="path832"
       style="fill:#8c45da;fill-opacity:1;stroke:#4b1980;stroke-width:2.6389451;stroke-linecap:butt;stroke-linejoin:miter;stroke-miterlimit:4;stroke-dasharray:none;stroke-opacity:1"
       d="m 55.940345,259.19551 c 0.04518,-2.5276 0.354774,-5.43996 0.506657,-9.25052 1.636496,-0.24674 2.677283,0.20473 3.145055,0.0217 3.586483,-0.33539 6.345491,-3.4928 8.391815,-3.76944 -1.593057,-1.44707 -5.526185,0.95707 -6.947317,1.1285 0.393619,-1.64815 1.859327,-3.84203 3.223939,-4.4092 -2.724352,-1.26649 -4.583228,3.63574 -5.412047,3.59629 -0.192902,-0.71499 0.533978,-4.74822 0.908225,-5.05611 -1.936938,0.09 -3.366623,4.86764 -3.300654,5.0461 -1.626923,0.0235 -5.74051,-0.4854 -7.219351,-0.13721 -3.083437,6.0964 -3.38417,7.31657 -5.009358,9.33091 m -0.940973,-35.54877 c 10.679727,-1.48687 10.824707,-2.4163 12.869842,-1.43255 0.414021,1.05043 3.489726,7.2606 3.884622,7.62501 1.588988,1.88961 2.597296,5.40803 2.516284,7.16381 2.135171,-2.37893 -1.108908,-4.11305 0.12249,-6.36181 2.634621,1.4977 4.217423,1.72381 5.562097,3.8135 0.863359,-3.32862 -4.256413,-3.79898 -4.4889,-5.58462 1.382893,-0.45733 5.359541,-0.0617 6.438164,0.82998 -0.626919,-2.59437 -4.909793,-3.1771 -7.06731,-2.26454 -0.230804,-1.30584 -2.538446,-8.51235 -3.051417,-9.65731 -6.050535,-1.69719 -5.337799,0.51936 -10.42344,-1.95317" />
  </g>
</svg>
