<?xml version="1.0" encoding="UTF-8" standalone="no"?>
<!-- Created with Inkscape (http://www.inkscape.org/) -->

<svg
   xmlns:dc="http://purl.org/dc/elements/1.1/"
   xmlns:cc="http://creativecommons.org/ns#"
   xmlns:rdf="http://www.w3.org/1999/02/22-rdf-syntax-ns#"
   xmlns:svg="http://www.w3.org/2000/svg"
   xmlns="http://www.w3.org/2000/svg"
   xmlns:sodipodi="http://sodipodi.sourceforge.net/DTD/sodipodi-0.dtd"
   xmlns:inkscape="http://www.inkscape.org/namespaces/inkscape"
   width="200"
   height="200"
   viewBox="0 0 52.916664 52.916668"
   version="1.1"
   id="svg880"
   inkscape:export-filename="/home/lcp/bitmap.png"
   inkscape:export-xdpi="96"
   inkscape:export-ydpi="96"
   inkscape:version="0.92.2 5c3e80d, 2017-08-06"
   sodipodi:docname="logo.svg">
  <defs
     id="defs874" />
  <sodipodi:namedview
     id="base"
     pagecolor="#ffffff"
     bordercolor="#666666"
     borderopacity="1.0"
     inkscape:pageopacity="0.0"
     inkscape:pageshadow="2"
     inkscape:zoom="2.8284271"
     inkscape:cx="120.00432"
     inkscape:cy="93.113383"
     inkscape:document-units="mm"
     inkscape:current-layer="layer1"
     showgrid="false"
     inkscape:pagecheckerboard="true"
     units="px"
     inkscape:window-width="2560"
     inkscape:window-height="1024"
     inkscape:window-x="0"
     inkscape:window-y="28"
     inkscape:window-maximized="1" />
  <metadata
     id="metadata877">
    <rdf:RDF>
      <cc:Work
         rdf:about="">
        <dc:format>image/svg+xml</dc:format>
        <dc:type
           rdf:resource="http://purl.org/dc/dcmitype/StillImage" />
        <dc:title></dc:title>
      </cc:Work>
    </rdf:RDF>
  </metadata>
  <g
     inkscape:label="Layer 1"
     inkscape:groupmode="layer"
     id="layer1"
     transform="translate(0,-244.08332)">
    <path
       style="fill:#000000;stroke-width:0.26458332"
       d=""
       id="path1446"
       inkscape:connector-curvature="0" />
    <path
       style="fill:#000000;stroke-width:0.26458332"
       d=""
       id="path1444"
       inkscape:connector-curvature="0" />
    <path
       style="fill:#000000;stroke-width:0.26458332"
       d=""
       id="path1442"
       inkscape:connector-curvature="0" />
    <path
       style="fill:#4b1980;fill-opacity:1;stroke:#4b1980;stroke-width:0.79755104;stroke-linecap:butt;stroke-linejoin:miter;stroke-miterlimit:4;stroke-dasharray:none;stroke-opacity:1"
       d="m 34.046269,254.92803 c -2.857243,0.0677 -6.981098,1.26728 -6.981098,4.00513 0,4.30293 9.83754,6.72476 13.108983,4.4631 1.401146,-0.96865 -0.01432,-4.87298 -1.811116,-7.15705 -0.904419,-1.14966 -2.128087,-0.75076 -4.316769,-1.31118 z"
       id="path1639"
       inkscape:connector-curvature="0"
       sodipodi:nodetypes="csssc"
       inkscape:export-xdpi="96"
       inkscape:export-ydpi="96" />
    <path
       id="path1539"
       style="fill:#8c45da;fill-opacity:1;stroke:#4b1980;stroke-width:0.79754829;stroke-linecap:butt;stroke-linejoin:miter;stroke-miterlimit:4;stroke-dasharray:none;stroke-opacity:1"
       d="m 28.626912,263.2339 c 3.702041,2.96213 9.380148,0.46606 12.141659,1.76776 M 30.004745,253.21333 c -0.457478,6e-4 -0.870937,0.057 -1.218638,0.18053 -0.288036,1.24627 -0.34885,1.39752 -0.524987,2.32139 v 0 c -3.409386,0.33062 -6.710802,1.49664 -9.478259,3.38379 -7.816129,5.32989 -10.1310796,15.9431 -4.199893,23.31181 5.032974,6.2528 14.946778,8.08239 21.744698,3.18599 5.412665,-3.89862 7.107398,-11.34498 3.108232,-16.61603 0.111728,-0.029 0.202186,-0.0643 0.266158,-0.10697 4.785341,-3.1902 -0.938089,-13.02855 -0.938089,-13.02855 -1.150139,-1.3518 -5.963532,-2.63719 -8.759222,-2.63196 z m 3.316356,3.22147 c 1.022223,-0.0346 2.091166,1.09627 2.091166,2.41278 0,8.47577 -10.990196,-2.11123 -2.091166,-2.41278 z m 5.297799,0.98606 c 0.184833,0.002 0.29858,0.0462 0.697333,0.205 0.481268,0.97576 1.119217,2.46342 1.375501,3.5242 -3.047031,2.48921 -3.979487,-3.60383 -2.294599,-3.71945 0.09059,-0.006 0.160142,-0.0103 0.221765,-0.01 z"
       inkscape:connector-curvature="0" />
    <ellipse
       style="opacity:1;fill:#8c45da;fill-opacity:1;fill-rule:evenodd;stroke:#8c45da;stroke-width:0.79754829;stroke-linecap:round;stroke-linejoin:round;stroke-miterlimit:4;stroke-dasharray:none;stroke-opacity:1;paint-order:normal"
       id="path1550"
       cx="32.876663"
       cy="259.07776"
       rx="0.61433661"
       ry="0.54615366"
       inkscape:export-xdpi="96"
       inkscape:export-ydpi="96" />
    <ellipse
       style="opacity:1;fill:#8c45da;fill-opacity:1;fill-rule:evenodd;stroke:#8c45da;stroke-width:0.79754829;stroke-linecap:round;stroke-linejoin:round;stroke-miterlimit:4;stroke-dasharray:none;stroke-opacity:1;paint-order:normal"
       id="path1554"
       cx="39.102821"
       cy="259.63477"
       rx="0.28560799"
       ry="0.26741835"
       inkscape:export-xdpi="96"
       inkscape:export-ydpi="96" />
    <path
       id="path1533-6"
       style="fill:#8c45da;fill-opacity:1;stroke:#4b1980;stroke-width:0.79754829;stroke-linecap:butt;stroke-linejoin:miter;stroke-miterlimit:4;stroke-dasharray:none;stroke-opacity:1"
       d="m 28.810842,274.3231 c -0.754003,-1.13877 1.276185,-1.50844 2.032217,-1.16718 2.048802,0.92481 1.739637,3.5815 0.474186,4.95258 -2.263598,2.45252 -6.377046,1.88999 -8.60306,-0.28391 -3.266766,-3.1903 -2.336475,-8.33197 1.083849,-11.0723 0.649246,-0.52018 1.374271,-0.95718 2.122036,-1.34683 3.113061,2.73471 12.616133,4.2456 13.781983,3.46838"
       inkscape:connector-curvature="0"
       sodipodi:nodetypes="csssscc"
       inkscape:export-xdpi="96"
       inkscape:export-ydpi="96" />
    <path
       id="path832"
       style="fill:#8c45da;fill-opacity:1;stroke:#4b1980;stroke-width:0.79754829;stroke-linecap:butt;stroke-linejoin:miter;stroke-miterlimit:4;stroke-dasharray:none;stroke-opacity:1"
       d="m 24.475858,279.8514 c 0.01365,-0.7639 0.10722,-1.64408 0.153123,-2.79572 0.494586,-0.0746 0.809135,0.0619 0.950506,0.007 1.083915,-0.10136 1.917749,-1.0556 2.536194,-1.13921 -0.481457,-0.43734 -1.670137,0.28925 -2.099634,0.34106 0.11896,-0.49811 0.56193,-1.16115 0.974346,-1.33256 -0.82336,-0.38276 -1.385154,1.0988 -1.635642,1.08688 -0.0583,-0.21609 0.16138,-1.43502 0.274486,-1.52807 -0.585386,0.0272 -1.017469,1.47111 -0.997531,1.52504 -0.491693,0.007 -1.734911,-0.1467 -2.18185,-0.0415 -0.931883,1.84246 -1.022772,2.21123 -1.51394,2.82001 m -0.284383,-10.74364 c 3.227653,-0.44936 3.271469,-0.73026 3.889554,-0.43295 0.125127,0.31747 1.054674,2.19432 1.17402,2.30445 0.480228,0.57108 0.784961,1.63443 0.760477,2.16507 0.645297,-0.71897 -0.335136,-1.24306 0.03702,-1.92269 0.796241,0.45264 1.274599,0.52098 1.68099,1.15253 0.260926,-1.00598 -1.286383,-1.14814 -1.356646,-1.6878 0.417941,-0.13821 1.619773,-0.0186 1.945757,0.25084 -0.189469,-0.78408 -1.483849,-0.96019 -2.135899,-0.68439 -0.06975,-0.39466 -0.767175,-2.57263 -0.922207,-2.91866 -1.828607,-0.51293 -1.613202,0.15696 -3.150197,-0.59029"
       inkscape:connector-curvature="0" />
  </g>
</svg>
